# xmcd CD database file
#
# Track frame offsets:
#	150
#	12417
#	25212
#	39847
#	53440
#	68462
#	83362
#	97650
#	114265
#	124475
#	137200
#	153122
#	166957
#	179882
#
# Disc length: 2585 seconds
#
# Revision: 0
# Processed by: cddbd v1.4PL0 Copyright (c) Steve Scherf et al.
# Submitted via: CDex 1.40Beta9
#
DISCID=a00a170e
DTITLE=Slim Dusty - Country Way Of Life
DYEAR=1995
DGENRE=Country
TTITLE0=Rock 'N' Roll In A Cowboy Hat
TTITLE1=Rough Ridin' Rodeo
TTITLE2=Who Wants Moss?
TTITLE3=As The Bush Becomes The Town
TTITLE4=My Heart's In Australia Now
TTITLE5=I Won't Believe It's Never Gonna Rain
TTITLE6=Old Rock 'N' Roller
TTITLE7=Joe Daly
TTITLE8=Old Woolshed Ball
TTITLE9=Top Springs
TTITLE10=Fifteen Hundred Head
TTITLE11=Me And Matilda
TTITLE12=Brown Bottle Blues
TTITLE13=Country Way Of Life
EXTD=YEAR: 1995 ID3G: 2
EXTT0=
EXTT1=
EXTT2=
EXTT3=
EXTT4=
EXTT5=
EXTT6=
EXTT7=
EXTT8=
EXTT9=
EXTT10=
EXTT11=
EXTT12=
EXTT13=
PLAYORDER=
